<?xml version="1.0" encoding="UTF-8" standalone="no"?>
<!-- Created with Inkscape (http://www.inkscape.org/) -->

<svg
   version="1.1"
   id="svg1"
   width="485"
   height="564"
   viewBox="0 0 485 564"
   sodipodi:docname="img-hero.svg"
   inkscape:version="1.4.2 (f4327f4, 2025-05-13)"
   xmlns:inkscape="http://www.inkscape.org/namespaces/inkscape"
   xmlns:sodipodi="http://sodipodi.sourceforge.net/DTD/sodipodi-0.dtd"
   xmlns="http://www.w3.org/2000/svg"
   xmlns:svg="http://www.w3.org/2000/svg">
  <defs
     id="defs1" />
  <sodipodi:namedview
     id="namedview1"
     pagecolor="#ffffff"
     bordercolor="#000000"
     borderopacity="0.25"
     inkscape:showpageshadow="2"
     inkscape:pageopacity="0.0"
     inkscape:pagecheckerboard="0"
     inkscape:deskcolor="#d1d1d1"
     inkscape:zoom="1.4308511"
     inkscape:cx="149.56134"
     inkscape:cy="282"
     inkscape:window-width="1920"
     inkscape:window-height="1009"
     inkscape:window-x="-8"
     inkscape:window-y="-8"
     inkscape:window-maximized="1"
     inkscape:current-layer="g1" />
  <g
     inkscape:groupmode="layer"
     inkscape:label="Image"
     id="g1">
    <path
       style="fill:#29333d;stroke:none"
       d="m 102.69889,439.69889 c 2.47028,-10.30176 13.02384,-26.39859 11.36343,-36.80029 -1.14102,-7.14786 -16.311472,-17.02088 -21.336292,-22.19971 -14.20613,-14.64154 -26.09076,-32.49771 -34.65008,-51 -23.76464,-51.37088 -25.43592,-110.56827 -3.90458,-163 8.41315,-20.48715 20.85972,-39.24313 35.24974,-56 86.818062,-101.0977226 250.335822,-89.45606 323.943152,21 13.77768,20.67496 24.01987,43.67212 29.30826,68 9.92173,45.64252 4.12503,93.14059 -16.80465,135 -8.29487,16.58972 -19.35431,32.58746 -32.15226,46 -5.2268,5.47784 -19.28247,14.81104 -21.04025,22.05942 -2.31036,9.52698 8.71744,27.32358 11.02353,36.94058 17.11319,-4.99261 34.45956,-26.71954 45.37616,-40 37.10519,-45.1398 56.62384,-99.67465 56.62384,-158 0,-101.55737 -68.42722,-194.025029 -164,-227.291387 C 290.80872,3.6554894 258.27592,0.19674839 225.69889,1.7582724 130.25867,6.3329794 44.350148,77.022275 13.407608,165.69889 c -13.38248971,38.35217 -15.2441297,79.16074 -8.9970397,119 7.2841497,46.45288 29.5429197,90.73422 61.9206497,124.77573 9.6023,10.09573 22.59426,26.52819 36.367672,30.22427 m 126,-378.566869 c -32.40279,4.025635 -63.00156,13.333954 -90,32.298614 C 48.084928,157.08112 32.315458,291.9863 111.86298,371.5348 c 22.27401,22.27426 49.83705,38.09341 79.83591,47.36032 22.66116,7.00024 47.50078,9.12243 71,6.49859 27.58493,-3.08007 54.36298,-12.38629 78,-26.90457 18.3302,-11.25876 34.36011,-25.85409 47.56686,-42.79025 78.2695,-100.37149 28.10209,-253.06946 -94.56686,-287.999364 -20.44696,-5.822266 -43.75963,-9.20636 -65,-6.567505 m 3,26.871924 c 16.85741,-1.86072 34.67307,0.48779 51,4.5697 110.47528,27.619935 153.37329,164.202455 81.74384,251.125245 -11.75831,14.26877 -26.34647,27.10324 -42.74384,35.85892 -19.27365,10.29153 -40.13873,17.75549 -62,19.94137 -107.3483,10.73355 -193.142782,-88.60199 -169.564432,-192.80029 4.13178,-18.25931 12.419722,-35.58215 22.915892,-51 10.63118,-15.61615 24.74232,-30.41504 40.64854,-40.74048 24.36038,-15.813415 49.32227,-23.789035 78,-26.954465 m -4,17.130645 c -69.58112,8.96606 -121.58456,65.53744 -124.94058,135.5643 -3.664152,76.45639 69.92393,151.57001 147.94058,142.69418 34.50308,-3.92535 66.79367,-15.88821 91.80362,-40.89056 75.82535,-75.80228 38.13589,-208.39032 -65.80362,-234.17722 -15.49393,-3.84396 -33.11755,-5.23727 -49,-3.1907 m 11,11.86935 c 79.96021,-8.82434 143.11801,74.20923 130.63876,148.69495 -9.87915,58.96619 -60.94311,99.49237 -118.63876,104.80362 -84.37363,7.76712 -154.144732,-79.25534 -131.10725,-159.80362 16.09782,-56.28448 63.31282,-87.53751 119.10725,-93.69495 m -18,148.69495 c -10.01872,-10.01871 -21.6949,-26.89999 -35,-32.3287 -10.76122,-4.39078 -22.69662,3.84188 -22.90651,15.3287 -0.23941,13.10333 18.46739,25.56088 26.90651,34 8.46445,8.46445 18.61746,23.96652 32,22.87051 10.81061,-0.88537 18.88855,-12.75906 26,-19.87051 l 58,-58 c 7.4104,-7.4104 19.50015,-15.59576 19.92593,-27 0.46494,-12.45297 -12.60586,-20.81232 -23.92593,-15.47903 -15.45294,7.28042 -29.94952,28.42855 -42,40.47903 -12.86032,12.86032 -28.29314,25.29181 -39,40 m -88,150 c -8.95885,27.39175 -17.93081,54.84955 -27.58501,82 -2.66671,7.4996 -11.680902,24.13153 -8.669752,31.8988 2.54686,6.56964 10.738072,2.7389 15.254762,1.04511 10.05191,-3.76947 19.94791,-7.96246 30,-11.75348 3.55051,-1.33899 9.02853,-4.41638 12.85738,-2.81647 3.61119,1.50904 5.76004,6.49732 7.71284,9.62604 5.34183,8.55853 10.4539,17.22821 15.43222,26 2.15112,3.79028 4.36995,10.24329 9.0737,11.43726 9.10608,2.3114 12.38146,-19.45435 14.50887,-25.43726 10.40377,-29.25848 25.65954,-60.51294 31.41499,-91 -24.4182,-0.003 -49.77737,-7.0296 -72,-16.87537 -9.46286,-4.19256 -18.25305,-10.83545 -28,-14.12463 m 121,31 c 2.36665,12.53638 8.51755,24.97333 12.77469,37 6.3511,17.9422 12.0693,36.13892 18.65701,54 2.23752,6.06659 5.39084,27.06671 14.50888,25.48651 5.01239,-0.86871 7.2663,-7.60675 9.38312,-11.48651 5.00677,-9.17645 10.66098,-18.06097 16.07895,-27 1.82297,-3.00769 4.03033,-8.01184 7.80493,-8.91486 3.89078,-0.93084 9.24399,2.15094 12.79242,3.48505 9.68478,3.64124 19.48029,7.09412 29,11.14545 4.45178,1.89459 12.67801,5.82995 15.25476,-0.81684 3.02557,-7.80462 -5.74499,-23.38943 -8.25464,-30.8988 -9.1203,-27.28992 -16.04596,-56.84238 -28.00012,-83 -10.31827,4.1203 -19.75601,10.64532 -30,15.12732 -21.63486,9.46576 -46.30579,15.86969 -70,15.87268 z"
       id="path13" />
  </g>
</svg>
